<svg width="460" height="100" viewBox="0 0 460 100" fill="none" xmlns="http://www.w3.org/2000/svg">
<rect x="72" y="32" width="388" height="68" rx="10" fill="white"/>
<path d="M95.6313 55.06V60.3H97.8313C98.6979 60.3 99.5379 60.2067 100.351 60.02C101.165 59.82 101.885 59.5133 102.511 59.1C103.151 58.6733 103.665 58.1267 104.051 57.46C104.438 56.7933 104.631 55.9867 104.631 55.04C104.631 54.16 104.445 53.4267 104.071 52.84C103.698 52.2533 103.205 51.7867 102.591 51.44C101.991 51.0933 101.311 50.8533 100.551 50.72C99.7913 50.5733 99.0313 50.5 98.2713 50.5C98.0446 50.5 97.7979 50.5067 97.5313 50.52C97.2646 50.5333 96.9913 50.56 96.7113 50.6C96.4446 50.6267 96.1779 50.66 95.9113 50.7C95.6579 50.74 95.4313 50.78 95.2313 50.82L95.6313 55.06ZM91.4313 78V52.2L90.8313 48.2C91.2313 48.1467 91.6913 48.0933 92.2113 48.04C92.7446 47.9867 93.2913 47.9467 93.8513 47.92C94.4113 47.88 94.9646 47.8533 95.5113 47.84C96.0579 47.8133 96.5446 47.8 96.9713 47.8C98.4513 47.8 99.8779 47.9 101.251 48.1C102.638 48.2867 103.865 48.6333 104.931 49.14C105.998 49.6467 106.851 50.3467 107.491 51.24C108.131 52.12 108.451 53.2467 108.451 54.62C108.451 56.0733 108.098 57.3267 107.391 58.38C106.698 59.4333 105.778 60.24 104.631 60.8L101.551 61.68L104.491 61.96C105.305 62.2 106.071 62.5133 106.791 62.9C107.525 63.2733 108.165 63.7333 108.711 64.28C109.258 64.8267 109.685 65.4733 109.991 66.22C110.311 66.9667 110.471 67.8267 110.471 68.8C110.471 69.9333 110.318 70.9467 110.011 71.84C109.705 72.7333 109.291 73.52 108.771 74.2C108.251 74.88 107.638 75.4667 106.931 75.96C106.225 76.44 105.465 76.8333 104.651 77.14C103.851 77.4333 103.018 77.6533 102.151 77.8C101.298 77.9333 100.458 78 99.6313 78H91.4313ZM95.6313 74.8H98.4313C99.7513 74.8 100.911 74.7067 101.911 74.52C102.911 74.32 103.751 74 104.431 73.56C105.111 73.1067 105.618 72.5133 105.951 71.78C106.298 71.0333 106.471 70.1067 106.471 69C106.471 68 106.298 67.1467 105.951 66.44C105.605 65.7333 105.111 65.1533 104.471 64.7C103.845 64.2467 103.085 63.92 102.191 63.72C101.298 63.5067 100.311 63.4 99.2313 63.4H95.6313V74.8ZM130.847 78H126.647V74.76L124.767 77C124.54 77.1733 124.28 77.34 123.987 77.5C123.694 77.66 123.394 77.8067 123.087 77.94C122.794 78.06 122.494 78.1533 122.187 78.22C121.894 78.3 121.62 78.34 121.367 78.34C120.367 78.34 119.407 78.1867 118.487 77.88C117.58 77.56 116.78 77.1 116.087 76.5C115.407 75.8867 114.86 75.1333 114.447 74.24C114.047 73.3333 113.847 72.2933 113.847 71.12C113.847 69.88 114.094 68.8067 114.587 67.9C115.094 66.98 115.734 66.22 116.507 65.62C117.294 65.0067 118.167 64.5533 119.127 64.26C120.087 63.9533 121.027 63.8 121.947 63.8C122.707 63.8 123.374 63.84 123.947 63.92C124.534 64 125.027 64.0933 125.427 64.2C125.894 64.32 126.3 64.4533 126.647 64.6V63.9C126.647 63.1133 126.6 62.4067 126.507 61.78C126.414 61.1533 126.22 60.6267 125.927 60.2C125.647 59.76 125.234 59.4267 124.687 59.2C124.154 58.9733 123.44 58.86 122.547 58.86C121.827 58.86 121.134 58.9133 120.467 59.02C119.8 59.1133 119.207 59.22 118.687 59.34C118.074 59.4867 117.507 59.64 116.987 59.8L115.547 57.12C116.134 56.8533 116.8 56.6133 117.547 56.4C118.187 56.2133 118.947 56.0467 119.827 55.9C120.707 55.74 121.68 55.66 122.747 55.66C124.28 55.66 125.547 55.8667 126.547 56.28C127.547 56.6933 128.334 57.2733 128.907 58.02C129.48 58.7667 129.88 59.6667 130.107 60.72C130.334 61.76 130.447 62.92 130.447 64.2V74.4L130.847 78ZM126.647 67.34C126.274 67.2867 125.874 67.2333 125.447 67.18C125.087 67.14 124.674 67.1 124.207 67.06C123.74 67.02 123.254 67 122.747 67C122 67 121.314 67.0733 120.687 67.22C120.074 67.3667 119.54 67.6067 119.087 67.94C118.634 68.26 118.28 68.68 118.027 69.2C117.774 69.72 117.647 70.3533 117.647 71.1C117.647 71.7 117.747 72.2467 117.947 72.74C118.147 73.2333 118.42 73.66 118.767 74.02C119.114 74.38 119.52 74.66 119.987 74.86C120.467 75.0467 120.98 75.14 121.527 75.14C121.78 75.14 122.047 75.1067 122.327 75.04C122.62 74.96 122.907 74.86 123.187 74.74C123.48 74.62 123.767 74.48 124.047 74.32C124.34 74.16 124.614 74 124.867 73.84C125.467 73.4533 126.06 73.0133 126.647 72.52V67.34ZM148.403 60.44C147.883 59.9733 147.263 59.5933 146.543 59.3C145.836 59.0067 145.103 58.86 144.343 58.86C143.223 58.86 142.269 59.0733 141.483 59.5C140.696 59.9133 140.056 60.48 139.563 61.2C139.083 61.92 138.729 62.76 138.503 63.72C138.276 64.6667 138.163 65.6667 138.163 66.72C138.163 67.8133 138.263 68.86 138.463 69.86C138.676 70.8467 139.029 71.72 139.523 72.48C140.016 73.24 140.669 73.8467 141.483 74.3C142.309 74.74 143.336 74.96 144.563 74.96C145.589 74.96 146.456 74.84 147.163 74.6C147.883 74.36 148.436 74.1067 148.823 73.84L150.263 76.66C149.516 77.1667 148.643 77.5733 147.643 77.88C146.656 78.1867 145.536 78.34 144.283 78.34C142.616 78.34 141.156 78.0133 139.903 77.36C138.649 76.6933 137.603 75.8133 136.763 74.72C135.936 73.6133 135.309 72.3467 134.883 70.92C134.469 69.48 134.263 67.9933 134.263 66.46C134.263 65.0733 134.463 63.7333 134.863 62.44C135.276 61.1333 135.896 59.98 136.723 58.98C137.563 57.98 138.616 57.18 139.883 56.58C141.163 55.9667 142.663 55.66 144.383 55.66C145.609 55.66 146.703 55.8533 147.663 56.24C148.636 56.6133 149.543 57.26 150.383 58.18L148.403 60.44ZM155.063 78V49.6L154.663 46L158.863 45.6V64.2L166.263 56H170.843L163.443 64.2L160.083 65.46L163.443 66.66L173.063 78H168.343L158.863 66.86V78H155.063ZM194.539 78V51.2H186.239V48H206.939V51.2H198.739V78H194.539ZM217.411 78.34C215.931 78.34 214.578 78.0533 213.351 77.48C212.138 76.8933 211.091 76.0933 210.211 75.08C209.331 74.0533 208.645 72.8467 208.151 71.46C207.671 70.06 207.431 68.5533 207.431 66.94C207.431 65.3267 207.665 63.8333 208.131 62.46C208.598 61.0733 209.265 59.88 210.131 58.88C210.998 57.8667 212.045 57.08 213.271 56.52C214.511 55.9467 215.891 55.66 217.411 55.66C218.891 55.66 220.245 55.9467 221.471 56.52C222.698 57.08 223.751 57.8667 224.631 58.88C225.511 59.88 226.198 61.0733 226.691 62.46C227.185 63.8333 227.431 65.3267 227.431 66.94C227.431 68.5533 227.191 70.06 226.711 71.46C226.245 72.8467 225.578 74.0533 224.711 75.08C223.845 76.0933 222.791 76.8933 221.551 77.48C220.311 78.0533 218.931 78.34 217.411 78.34ZM223.631 67.48C223.631 66.4 223.511 65.34 223.271 64.3C223.045 63.26 222.678 62.3333 222.171 61.52C221.665 60.6933 221.011 60.0267 220.211 59.52C219.411 59.0133 218.451 58.76 217.331 58.76C216.265 58.76 215.345 58.98 214.571 59.42C213.798 59.86 213.165 60.4467 212.671 61.18C212.178 61.9133 211.811 62.7467 211.571 63.68C211.345 64.6133 211.231 65.5733 211.231 66.56C211.231 67.64 211.345 68.7 211.571 69.74C211.811 70.78 212.178 71.7067 212.671 72.52C213.178 73.3333 213.825 73.9933 214.611 74.5C215.411 74.9933 216.371 75.24 217.491 75.24C218.545 75.24 219.458 75.02 220.231 74.58C221.005 74.14 221.645 73.56 222.151 72.84C222.658 72.1067 223.031 71.2733 223.271 70.34C223.511 69.4067 223.631 68.4533 223.631 67.48ZM261.3 78V63.5H248.7V78H244.6V52.2L244.02 48L248.7 47.6V60.3H261.3V47.96L265.4 47.6V78H261.3ZM279.788 78.34C278.308 78.34 276.954 78.0533 275.728 77.48C274.514 76.8933 273.468 76.0933 272.588 75.08C271.708 74.0533 271.021 72.8467 270.528 71.46C270.048 70.06 269.808 68.5533 269.808 66.94C269.808 65.3267 270.041 63.8333 270.508 62.46C270.974 61.0733 271.641 59.88 272.508 58.88C273.374 57.8667 274.421 57.08 275.648 56.52C276.888 55.9467 278.268 55.66 279.788 55.66C281.268 55.66 282.621 55.9467 283.848 56.52C285.074 57.08 286.128 57.8667 287.008 58.88C287.888 59.88 288.574 61.0733 289.068 62.46C289.561 63.8333 289.808 65.3267 289.808 66.94C289.808 68.5533 289.568 70.06 289.088 71.46C288.621 72.8467 287.954 74.0533 287.088 75.08C286.221 76.0933 285.168 76.8933 283.928 77.48C282.688 78.0533 281.308 78.34 279.788 78.34ZM286.008 67.48C286.008 66.4 285.888 65.34 285.648 64.3C285.421 63.26 285.054 62.3333 284.548 61.52C284.041 60.6933 283.388 60.0267 282.588 59.52C281.788 59.0133 280.828 58.76 279.708 58.76C278.641 58.76 277.721 58.98 276.948 59.42C276.174 59.86 275.541 60.4467 275.048 61.18C274.554 61.9133 274.188 62.7467 273.948 63.68C273.721 64.6133 273.608 65.5733 273.608 66.56C273.608 67.64 273.721 68.7 273.948 69.74C274.188 70.78 274.554 71.7067 275.048 72.52C275.554 73.3333 276.201 73.9933 276.988 74.5C277.788 74.9933 278.748 75.24 279.868 75.24C280.921 75.24 281.834 75.02 282.608 74.58C283.381 74.14 284.021 73.56 284.528 72.84C285.034 72.1067 285.408 71.2733 285.648 70.34C285.888 69.4067 286.008 68.4533 286.008 67.48ZM298.392 78H294.592V56L298.392 55.6V59.26L299.612 57.12C299.852 56.96 300.152 56.7933 300.512 56.62C300.872 56.4467 301.279 56.2933 301.732 56.16C302.186 56.0133 302.672 55.8933 303.192 55.8C303.712 55.7067 304.246 55.66 304.792 55.66C306.286 55.66 307.499 56.0267 308.432 56.76C309.366 57.48 309.972 58.4067 310.252 59.54L311.772 57.2C312.239 56.8267 312.899 56.48 313.752 56.16C314.606 55.8267 315.586 55.66 316.692 55.66C317.706 55.66 318.572 55.8333 319.292 56.18C320.012 56.5133 320.599 57 321.052 57.64C321.519 58.28 321.859 59.0533 322.072 59.96C322.286 60.8667 322.392 61.88 322.392 63V78H318.592V63.2C318.592 62.48 318.539 61.8533 318.432 61.32C318.339 60.7733 318.166 60.32 317.912 59.96C317.672 59.5867 317.346 59.3133 316.932 59.14C316.519 58.9533 316.006 58.86 315.392 58.86C315.006 58.86 314.599 58.9267 314.172 59.06C313.759 59.1933 313.339 59.3733 312.912 59.6C312.486 59.8133 312.066 60.0667 311.652 60.36C311.252 60.64 310.872 60.9267 310.512 61.22C310.552 61.6067 310.572 61.9333 310.572 62.2C310.586 62.4533 310.592 62.7867 310.592 63.2V78H306.792V63.2C306.792 61.76 306.552 60.68 306.072 59.96C305.592 59.2267 304.732 58.86 303.492 58.86C303.092 58.86 302.666 58.92 302.212 59.04C301.759 59.16 301.306 59.3267 300.852 59.54C300.412 59.7533 299.979 60 299.552 60.28C299.126 60.5467 298.739 60.8267 298.392 61.12V78ZM344.728 75.42C344.314 75.8467 343.861 76.24 343.368 76.6C342.874 76.96 342.328 77.2733 341.728 77.54C341.128 77.7933 340.461 77.9867 339.728 78.12C339.008 78.2667 338.201 78.34 337.308 78.34C335.534 78.34 334.021 78.0267 332.768 77.4C331.514 76.7733 330.488 75.9333 329.688 74.88C328.901 73.8267 328.321 72.62 327.948 71.26C327.588 69.9 327.408 68.48 327.408 67C327.408 66.0533 327.494 65.12 327.668 64.2C327.841 63.2667 328.101 62.38 328.448 61.54C328.794 60.7 329.228 59.92 329.748 59.2C330.268 58.48 330.874 57.86 331.568 57.34C332.261 56.82 333.041 56.4133 333.908 56.12C334.788 55.8133 335.754 55.66 336.808 55.66C338.248 55.66 339.494 55.8933 340.548 56.36C341.601 56.8267 342.474 57.48 343.168 58.32C343.861 59.16 344.374 60.1667 344.708 61.34C345.041 62.5133 345.208 63.8133 345.208 65.24C345.208 65.6533 345.194 66.1067 345.168 66.6C345.141 67.0933 345.101 67.56 345.048 68H331.208C331.208 69 331.341 69.9333 331.608 70.8C331.888 71.6667 332.274 72.4267 332.768 73.08C333.261 73.72 333.854 74.2267 334.548 74.6C335.254 74.96 336.041 75.14 336.908 75.14C337.761 75.14 338.501 75.08 339.128 74.96C339.768 74.8267 340.314 74.6733 340.768 74.5C341.221 74.3133 341.588 74.1267 341.868 73.94C342.161 73.7533 342.388 73.6067 342.548 73.5L344.728 75.42ZM341.408 65C341.421 64.8533 341.428 64.7067 341.428 64.56C341.441 64.4133 341.448 64.2667 341.448 64.12C341.448 63.36 341.361 62.66 341.188 62.02C341.014 61.38 340.748 60.8267 340.388 60.36C340.041 59.88 339.594 59.5067 339.048 59.24C338.501 58.9733 337.854 58.84 337.108 58.84C336.214 58.84 335.448 58.9867 334.808 59.28C334.181 59.56 333.648 59.9267 333.208 60.38C332.781 60.82 332.434 61.3067 332.168 61.84C331.914 62.3733 331.721 62.88 331.588 63.36L330.548 65.54L334.108 65H341.408ZM366.984 78H362.784V52.2L362.084 48.2C362.484 48.1333 362.971 48.0733 363.544 48.02C364.131 47.9667 364.751 47.92 365.404 47.88C366.058 47.84 366.711 47.8133 367.364 47.8C368.018 47.7733 368.604 47.76 369.124 47.76C370.658 47.76 372.124 47.9 373.524 48.18C374.938 48.4467 376.184 48.9 377.264 49.54C378.344 50.18 379.204 51.02 379.844 52.06C380.484 53.1 380.804 54.3867 380.804 55.92C380.804 57.7867 380.471 59.34 379.804 60.58C379.138 61.8067 378.198 62.7867 376.984 63.52C375.771 64.2533 374.311 64.7733 372.604 65.08C370.911 65.3733 369.038 65.52 366.984 65.52V78ZM366.984 55.06V62.7C368.584 62.7 370.004 62.6067 371.244 62.42C372.484 62.2333 373.531 61.9 374.384 61.42C375.238 60.9267 375.884 60.2533 376.324 59.4C376.764 58.5467 376.984 57.4467 376.984 56.1C376.984 55.1 376.771 54.2467 376.344 53.54C375.931 52.8333 375.391 52.2533 374.724 51.8C374.058 51.3467 373.311 51.02 372.484 50.82C371.658 50.6067 370.838 50.5 370.024 50.5C369.798 50.5 369.524 50.5133 369.204 50.54C368.898 50.5533 368.584 50.5733 368.264 50.6C367.944 50.6267 367.631 50.66 367.324 50.7C367.031 50.74 366.784 50.78 366.584 50.82L366.984 55.06ZM398.177 78H393.977V74.76L392.097 77C391.87 77.1733 391.61 77.34 391.317 77.5C391.023 77.66 390.723 77.8067 390.417 77.94C390.123 78.06 389.823 78.1533 389.517 78.22C389.223 78.3 388.95 78.34 388.697 78.34C387.697 78.34 386.737 78.1867 385.817 77.88C384.91 77.56 384.11 77.1 383.417 76.5C382.737 75.8867 382.19 75.1333 381.777 74.24C381.377 73.3333 381.177 72.2933 381.177 71.12C381.177 69.88 381.423 68.8067 381.917 67.9C382.423 66.98 383.063 66.22 383.837 65.62C384.623 65.0067 385.497 64.5533 386.457 64.26C387.417 63.9533 388.357 63.8 389.277 63.8C390.037 63.8 390.703 63.84 391.277 63.92C391.863 64 392.357 64.0933 392.757 64.2C393.223 64.32 393.63 64.4533 393.977 64.6V63.9C393.977 63.1133 393.93 62.4067 393.837 61.78C393.743 61.1533 393.55 60.6267 393.257 60.2C392.977 59.76 392.563 59.4267 392.017 59.2C391.483 58.9733 390.77 58.86 389.877 58.86C389.157 58.86 388.463 58.9133 387.797 59.02C387.13 59.1133 386.537 59.22 386.017 59.34C385.403 59.4867 384.837 59.64 384.317 59.8L382.877 57.12C383.463 56.8533 384.13 56.6133 384.877 56.4C385.517 56.2133 386.277 56.0467 387.157 55.9C388.037 55.74 389.01 55.66 390.077 55.66C391.61 55.66 392.877 55.8667 393.877 56.28C394.877 56.6933 395.663 57.2733 396.237 58.02C396.81 58.7667 397.21 59.6667 397.437 60.72C397.663 61.76 397.777 62.92 397.777 64.2V74.4L398.177 78ZM393.977 67.34C393.603 67.2867 393.203 67.2333 392.777 67.18C392.417 67.14 392.003 67.1 391.537 67.06C391.07 67.02 390.583 67 390.077 67C389.33 67 388.643 67.0733 388.017 67.22C387.403 67.3667 386.87 67.6067 386.417 67.94C385.963 68.26 385.61 68.68 385.357 69.2C385.103 69.72 384.977 70.3533 384.977 71.1C384.977 71.7 385.077 72.2467 385.277 72.74C385.477 73.2333 385.75 73.66 386.097 74.02C386.443 74.38 386.85 74.66 387.317 74.86C387.797 75.0467 388.31 75.14 388.857 75.14C389.11 75.14 389.377 75.1067 389.657 75.04C389.95 74.96 390.237 74.86 390.517 74.74C390.81 74.62 391.097 74.48 391.377 74.32C391.67 74.16 391.943 74 392.197 73.84C392.797 73.4533 393.39 73.0133 393.977 72.52V67.34ZM415.792 75.3L414.052 77.5C413.932 77.58 413.759 77.6667 413.532 77.76C413.319 77.8533 413.052 77.94 412.732 78.02C412.412 78.1133 412.039 78.1867 411.612 78.24C411.186 78.3067 410.712 78.34 410.192 78.34C408.979 78.34 407.846 78.0467 406.792 77.46C405.752 76.86 404.846 76.0533 404.072 75.04C403.299 74.0133 402.692 72.82 402.252 71.46C401.812 70.0867 401.592 68.6333 401.592 67.1C401.592 65.54 401.792 64.0667 402.192 62.68C402.592 61.2933 403.192 60.08 403.992 59.04C404.792 58 405.786 57.18 406.972 56.58C408.159 55.9667 409.539 55.66 411.112 55.66C411.606 55.66 412.086 55.68 412.552 55.72C413.032 55.76 413.479 55.8533 413.892 56L415.792 58.84V55.6L419.592 56V78.92C419.592 80.2267 419.366 81.4533 418.912 82.6C418.472 83.7467 417.832 84.74 416.992 85.58C416.152 86.4333 415.126 87.1067 413.912 87.6C412.712 88.0933 411.352 88.34 409.832 88.34C408.779 88.34 407.852 88.2067 407.052 87.94C406.266 87.6733 405.592 87.38 405.032 87.06C404.392 86.6867 403.839 86.2533 403.372 85.76L405.332 83.56C405.719 83.8533 406.152 84.12 406.632 84.36C407.046 84.56 407.526 84.74 408.072 84.9C408.619 85.06 409.212 85.14 409.852 85.14C410.679 85.14 411.452 84.9667 412.172 84.62C412.892 84.2867 413.519 83.8267 414.052 83.24C414.599 82.6533 415.026 81.96 415.332 81.16C415.639 80.3733 415.792 79.5267 415.792 78.62V75.3ZM415.792 61.32C415.432 60.8667 415.012 60.46 414.532 60.1C414.119 59.7933 413.619 59.5133 413.032 59.26C412.446 58.9933 411.772 58.86 411.012 58.86C410.212 58.86 409.519 58.9867 408.932 59.24C408.346 59.4933 407.839 59.8333 407.412 60.26C406.999 60.6867 406.659 61.1867 406.392 61.76C406.139 62.32 405.932 62.92 405.772 63.56C405.626 64.1867 405.526 64.8267 405.472 65.48C405.419 66.12 405.392 66.74 405.392 67.34C405.392 68.4733 405.512 69.52 405.752 70.48C406.006 71.4267 406.352 72.2467 406.792 72.94C407.246 73.62 407.786 74.1533 408.412 74.54C409.052 74.9267 409.752 75.12 410.512 75.12C411.192 75.12 411.799 75.0467 412.332 74.9C412.866 74.7533 413.346 74.56 413.772 74.32C414.199 74.0667 414.572 73.7867 414.892 73.48C415.226 73.16 415.526 72.8333 415.792 72.5V61.32ZM441.697 75.42C441.283 75.8467 440.83 76.24 440.337 76.6C439.843 76.96 439.297 77.2733 438.697 77.54C438.097 77.7933 437.43 77.9867 436.697 78.12C435.977 78.2667 435.17 78.34 434.277 78.34C432.503 78.34 430.99 78.0267 429.737 77.4C428.483 76.7733 427.457 75.9333 426.657 74.88C425.87 73.8267 425.29 72.62 424.917 71.26C424.557 69.9 424.377 68.48 424.377 67C424.377 66.0533 424.463 65.12 424.637 64.2C424.81 63.2667 425.07 62.38 425.417 61.54C425.763 60.7 426.197 59.92 426.717 59.2C427.237 58.48 427.843 57.86 428.537 57.34C429.23 56.82 430.01 56.4133 430.877 56.12C431.757 55.8133 432.723 55.66 433.777 55.66C435.217 55.66 436.463 55.8933 437.517 56.36C438.57 56.8267 439.443 57.48 440.137 58.32C440.83 59.16 441.343 60.1667 441.677 61.34C442.01 62.5133 442.177 63.8133 442.177 65.24C442.177 65.6533 442.163 66.1067 442.137 66.6C442.11 67.0933 442.07 67.56 442.017 68H428.177C428.177 69 428.31 69.9333 428.577 70.8C428.857 71.6667 429.243 72.4267 429.737 73.08C430.23 73.72 430.823 74.2267 431.517 74.6C432.223 74.96 433.01 75.14 433.877 75.14C434.73 75.14 435.47 75.08 436.097 74.96C436.737 74.8267 437.283 74.6733 437.737 74.5C438.19 74.3133 438.557 74.1267 438.837 73.94C439.13 73.7533 439.357 73.6067 439.517 73.5L441.697 75.42ZM438.377 65C438.39 64.8533 438.397 64.7067 438.397 64.56C438.41 64.4133 438.417 64.2667 438.417 64.12C438.417 63.36 438.33 62.66 438.157 62.02C437.983 61.38 437.717 60.8267 437.357 60.36C437.01 59.88 436.563 59.5067 436.017 59.24C435.47 58.9733 434.823 58.84 434.077 58.84C433.183 58.84 432.417 58.9867 431.777 59.28C431.15 59.56 430.617 59.9267 430.177 60.38C429.75 60.82 429.403 61.3067 429.137 61.84C428.883 62.3733 428.69 62.88 428.557 63.36L427.517 65.54L431.077 65H438.377Z" fill="black"/>
<path d="M51.2564 62.2561C36.3932 57.2424 26.4976 47.7604 26.7157 38.3974C26.8793 31.2363 32.9823 22.7908 36.3634 23.4603C38.2573 23.8372 39.5463 27.1251 39.5066 29.7535C39.3381 40.9266 15.0651 54.1578 5.94787 47.4083C0.444811 43.3318 1.6892 32.8828 2.34857 27.3582C3.88051 14.4494 10.8213 5.59224 14.2669 1.7439" stroke="black" stroke-width="3" stroke-miterlimit="10" stroke-linecap="round" stroke-linejoin="round"/>
<path d="M14.267 1.7439L4.32178 5.67655" stroke="black" stroke-width="3" stroke-miterlimit="10" stroke-linecap="round" stroke-linejoin="round"/>
<path d="M14.262 1.7439L13.2705 12.3963" stroke="black" stroke-width="3" stroke-miterlimit="10" stroke-linecap="round" stroke-linejoin="round"/>
</svg>
