<svg width="70" height="76" viewBox="0 0 70 76" fill="none" xmlns="http://www.w3.org/2000/svg">
<path d="M20.58 34H17.58V37H20.58V34ZM20.58 20.24H23.58V17.24H20.58V20.24ZM11.66 20.24V17.24H8.66V20.24H11.66ZM11.66 34V37H14.66V34H11.66ZM4.72 34H1.72V37H4.72V34ZM4.72 8.74H7.72V8.5396L7.69335 8.34098L4.72 8.74ZM4.1 4.12L3.84694 1.13069L0.707609 1.39645L1.12665 4.51902L4.1 4.12ZM11.66 3.48H14.66V0.215301L11.4069 0.490692L11.66 3.48ZM11.66 15.68H8.66V18.68H11.66V15.68ZM20.58 15.68V18.68H23.58V15.68H20.58ZM20.58 4.08L20.3123 1.09197L17.58 1.33677V4.08H20.58ZM27.5 3.46H30.5V0.179195L27.2323 0.471968L27.5 3.46ZM27.5 34V37H30.5V34H27.5ZM23.58 34V20.24H17.58V34H23.58ZM20.58 17.24H11.66V23.24H20.58V17.24ZM8.66 20.24V34H14.66V20.24H8.66ZM11.66 31H4.72V37H11.66V31ZM7.72 34V8.74H1.72V34H7.72ZM7.69335 8.34098L7.07335 3.72098L1.12665 4.51902L1.74665 9.13902L7.69335 8.34098ZM4.35306 7.10931L11.9131 6.46931L11.4069 0.490692L3.84694 1.13069L4.35306 7.10931ZM8.66 3.48V15.68H14.66V3.48H8.66ZM11.66 18.68H20.58V12.68H11.66V18.68ZM23.58 15.68V4.08H17.58V15.68H23.58ZM20.8477 7.06803L27.7677 6.44803L27.2323 0.471968L20.3123 1.09197L20.8477 7.06803ZM24.5 3.46V34H30.5V3.46H24.5ZM27.5 31H20.58V37H27.5V31ZM46.1078 33.18L44.9086 35.9299L46.1078 33.18ZM41.5878 29.98L39.3612 31.9905L39.366 31.9959L39.3709 32.0013L41.5878 29.98ZM38.7278 25.12L35.8941 26.1048L35.8983 26.1169L35.9026 26.129L38.7278 25.12ZM38.7078 12.9L41.5457 13.873L41.5478 13.8668L38.7078 12.9ZM41.4878 8.04L39.2504 6.04152L39.2492 6.04282L41.4878 8.04ZM46.0078 4.82L44.8161 2.06683V2.06683L46.0078 4.82ZM58.1078 4.82L59.307 2.0701V2.0701L58.1078 4.82ZM62.6078 8.04L60.3704 10.0385L60.3806 10.0499L60.3909 10.0613L62.6078 8.04ZM65.4478 12.9L62.6141 13.8848L62.6183 13.8969L62.6226 13.909L65.4478 12.9ZM65.4878 25.12L68.3257 26.093L68.3278 26.0868L65.4878 25.12ZM62.6878 29.98L60.4504 27.9815L60.4492 27.9828L62.6878 29.98ZM58.1878 33.18L56.9961 30.4268L56.9886 30.4301L58.1878 33.18ZM57.7678 11.98L60.3492 10.4515L60.3492 10.4515L57.7678 11.98ZM48.6878 9.44L50.1924 12.0354L50.2064 12.0273L50.2203 12.0191L48.6878 9.44ZM46.4278 11.6L48.9354 13.2468L48.941 13.2383L48.9465 13.2298L46.4278 11.6ZM45.1278 14.7L42.2098 14.0036L42.206 14.0194L42.2024 14.0351L45.1278 14.7ZM45.1278 22.5L42.1861 23.0883L42.1895 23.1054L42.1931 23.1225L45.1278 22.5ZM46.4478 26.02L43.8577 27.5337L43.862 27.5411L43.8664 27.5485L46.4478 26.02ZM55.4878 28.56L57.0369 31.1292L57.0477 31.1226L55.4878 28.56ZM57.7478 26.36L55.235 24.7212L55.2291 24.7302L57.7478 26.36ZM59.0478 23.22L56.1298 22.5236L56.126 22.5394L56.1224 22.5551L59.0478 23.22ZM52.1078 31.34C50.2319 31.34 48.6492 31.0154 47.307 30.4301L44.9086 35.9299C47.1131 36.8913 49.5304 37.34 52.1078 37.34V31.34ZM47.307 30.4301C45.9002 29.8166 44.746 28.9911 43.8047 27.9587L39.3709 32.0013C40.9096 33.6889 42.7688 34.9967 44.9086 35.9299L47.307 30.4301ZM43.8145 27.9695C42.8559 26.9079 42.0972 25.6345 41.553 24.111L35.9026 26.129C36.6918 28.3388 37.8397 30.3054 39.3612 31.9905L43.8145 27.9695ZM41.5616 24.1352C41.0293 22.6034 40.7478 20.8999 40.7478 19H34.7478C34.7478 21.5001 35.1197 23.8766 35.8941 26.1048L41.5616 24.1352ZM40.7478 19C40.7478 17.0933 41.0246 15.3927 41.5457 13.873L35.87 11.927C35.111 14.1406 34.7478 16.5067 34.7478 19H40.7478ZM41.5478 13.8668C42.07 12.3327 42.8036 11.0715 43.7264 10.0372L39.2492 6.04282C37.7453 7.7285 36.6256 9.7073 35.8679 11.9332L41.5478 13.8668ZM43.7252 10.0385C44.6457 9.008 45.7886 8.18383 47.1995 7.57316L44.8161 2.06683C42.6536 3.00284 40.7833 4.32534 39.2504 6.04152L43.7252 10.0385ZM47.1995 7.57316C48.5512 6.9881 50.1684 6.66 52.1078 6.66V0.659998C49.4872 0.659998 47.0378 1.10523 44.8161 2.06683L47.1995 7.57316ZM52.1078 6.66C53.9837 6.66 55.5664 6.98459 56.9086 7.56989L59.307 2.0701C57.1025 1.10874 54.6853 0.659998 52.1078 0.659998V6.66ZM56.9086 7.56989C58.3063 8.17941 59.4462 9.00376 60.3704 10.0385L64.8452 6.04152C63.3161 4.32957 61.456 3.00726 59.307 2.0701L56.9086 7.56989ZM60.3909 10.0613C61.3356 11.0973 62.0831 12.3569 62.6141 13.8848L68.2816 11.9152C67.5059 9.68309 66.36 7.70265 64.8247 6.01874L60.3909 10.0613ZM62.6226 13.909C63.1616 15.4182 63.4478 17.1063 63.4478 19H69.4478C69.4478 16.4937 69.0674 14.1151 68.273 11.891L62.6226 13.909ZM63.4478 19C63.4478 20.9063 63.1711 22.6162 62.6479 24.1532L68.3278 26.0868C69.0845 23.8638 69.4478 21.4937 69.4478 19H63.4478ZM62.65 24.147C62.1303 25.6627 61.3919 26.9275 60.4504 27.9815L64.9252 31.9785C66.4371 30.2859 67.5653 28.3106 68.3257 26.093L62.65 24.147ZM60.4492 27.9828C59.5453 28.996 58.4109 29.8145 56.9961 30.4268L59.3795 35.9332C61.5381 34.9988 63.4036 33.684 64.9264 31.9772L60.4492 27.9828ZM56.9886 30.4301C55.6549 31.0117 54.0478 31.34 52.1078 31.34V37.34C54.7278 37.34 57.174 36.895 59.387 35.9299L56.9886 30.4301ZM62.4678 19.58C62.4678 17.977 62.3165 16.4109 62.0084 14.8859L56.1272 16.0741C56.3525 17.1891 56.4678 18.3563 56.4678 19.58H62.4678ZM62.0084 14.8859C61.6846 13.2831 61.1431 11.7922 60.3492 10.4515L55.1864 13.5085C55.5925 14.1944 55.9177 15.0369 56.1272 16.0741L62.0084 14.8859ZM60.3492 10.4515C59.5239 9.05754 58.4318 7.8987 57.079 7.02224L53.8166 12.0578C54.3571 12.408 54.8118 12.8758 55.1864 13.5085L60.3492 10.4515ZM57.079 7.02224C55.5546 6.03456 53.8064 5.62 51.9878 5.62V11.62C52.8892 11.62 53.4477 11.8188 53.8166 12.0578L57.079 7.02224ZM51.9878 5.62C50.2747 5.62 48.6226 5.98912 47.1553 6.86095L50.2203 12.0191C50.5931 11.7975 51.1409 11.62 51.9878 11.62V5.62ZM47.1832 6.84458C45.8472 7.61909 44.7488 8.67261 43.9091 9.97025L48.9465 13.2298C49.2802 12.7141 49.6884 12.3276 50.1924 12.0354L47.1832 6.84458ZM43.9202 9.95321C43.1198 11.172 42.5602 12.5352 42.2098 14.0036L48.0459 15.3964C48.2555 14.5181 48.5625 13.8146 48.9354 13.2468L43.9202 9.95321ZM42.2024 14.0351C41.8841 15.4355 41.7278 16.8723 41.7278 18.34H47.7278C47.7278 17.3011 47.8381 16.3112 48.0532 15.3649L42.2024 14.0351ZM41.7278 18.34C41.7278 19.966 41.8785 21.5503 42.1861 23.0883L48.0696 21.9116C47.8438 20.7831 47.7278 19.594 47.7278 18.34H41.7278ZM42.1931 23.1225C42.5308 24.7144 43.0758 26.1958 43.8577 27.5337L49.0379 24.5063C48.6198 23.7909 48.2848 22.9256 48.0625 21.8775L42.1931 23.1225ZM43.8664 27.5485C44.6918 28.9425 45.7838 30.1013 47.1366 30.9778L50.399 25.9422C49.8585 25.592 49.4039 25.1242 49.0292 24.4915L43.8664 27.5485ZM47.1366 30.9778C48.6565 31.9625 50.396 32.38 52.2078 32.38V26.38C51.3263 26.38 50.7725 26.1842 50.399 25.9422L47.1366 30.9778ZM52.2078 32.38C53.9194 32.38 55.5735 32.0114 57.0369 31.1291L53.9388 25.9909C53.5887 26.2019 53.0563 26.38 52.2078 26.38V32.38ZM57.0477 31.1226C58.3545 30.3271 59.4352 29.2745 60.2665 27.9898L55.2291 24.7302C54.8871 25.2588 54.4611 25.6729 53.928 25.9974L57.0477 31.1226ZM60.2606 27.9988C61.0725 26.754 61.6353 25.3716 61.9732 23.8849L56.1224 22.5551C55.927 23.415 55.6232 24.126 55.235 24.7212L60.2606 27.9988ZM61.9659 23.9164C62.3024 22.5062 62.4678 21.0587 62.4678 19.58H56.4678C56.4678 20.608 56.3532 21.5872 56.1298 22.5236L61.9659 23.9164ZM20.94 57.02L18.2263 55.7411L18.0984 56.0125L18.0267 56.3038L20.94 57.02ZM27.5 43.1L27.2353 40.1117L25.5202 40.2636L24.7863 41.8211L27.5 43.1ZM34.5 42.48H37.5V39.2025L34.2353 39.4917L34.5 42.48ZM34.5 73V76H37.5V73H34.5ZM27.88 73H24.88V76H27.88V73ZM27.88 61.98L24.8917 61.7158L24.88 61.8476V61.98H27.88ZM28.78 51.8L31.7683 52.0642L32.0051 49.3856L29.3684 48.8583L28.78 51.8ZM28.68 51.78L29.2684 48.8383L26.691 48.3228L25.8411 50.8101L28.68 51.78ZM25.4 61.38L28.1111 62.6645L28.1839 62.5109L28.2389 62.3499L25.4 61.38ZM21.06 70.54V73.54H22.9583L23.7711 71.8245L21.06 70.54ZM17.4 70.54L14.6974 71.8422L15.5154 73.54H17.4V70.54ZM13.42 62.28L10.5648 63.2008L10.628 63.3968L10.7174 63.5822L13.42 62.28ZM10.04 51.8L12.8952 50.8792L12.1005 48.4152L9.54678 48.8408L10.04 51.8ZM9.92 51.82L9.42678 48.8608L6.68023 49.3186L6.93232 52.0916L9.92 51.82ZM10.94 63.04H13.94V62.9039L13.9277 62.7684L10.94 63.04ZM10.94 73V76H13.94V73H10.94ZM4.5 73H1.5V76H4.5V73ZM4.5 47.74H7.5V47.546L7.47502 47.3536L4.5 47.74ZM3.9 43.12L3.65018 40.1304L0.520514 40.3919L0.924984 43.5064L3.9 43.12ZM11.08 42.52L13.789 41.2311L12.8976 39.3577L10.8302 39.5304L11.08 42.52ZM17.96 56.98L20.8721 56.2592L20.7993 55.9649L20.669 55.6911L17.96 56.98ZM19.46 63.04L16.5479 63.7608L22.3733 63.7562L19.46 63.04ZM23.6537 58.2989L30.2137 44.3789L24.7863 41.8211L18.2263 55.7411L23.6537 58.2989ZM27.7647 46.0883L34.7647 45.4683L34.2353 39.4917L27.2353 40.1117L27.7647 46.0883ZM31.5 42.48V73H37.5V42.48H31.5ZM34.5 70H27.88V76H34.5V70ZM30.88 73V61.98H24.88V73H30.88ZM30.8683 62.2442L31.7683 52.0642L25.7917 51.5358L24.8917 61.7158L30.8683 62.2442ZM29.3684 48.8583L29.2684 48.8383L28.0916 54.7217L28.1916 54.7417L29.3684 48.8583ZM25.8411 50.8101L22.5611 60.4101L28.2389 62.3499L31.5189 52.7499L25.8411 50.8101ZM22.6889 60.0955L18.3489 69.2555L23.7711 71.8245L28.1111 62.6645L22.6889 60.0955ZM21.06 67.54H17.4V73.54H21.06V67.54ZM20.1026 69.2378L16.1226 60.9778L10.7174 63.5822L14.6974 71.8422L20.1026 69.2378ZM16.2752 61.3591L12.8952 50.8792L7.18482 52.7208L10.5648 63.2008L16.2752 61.3591ZM9.54678 48.8408L9.42678 48.8608L10.4132 54.7792L10.5332 54.7592L9.54678 48.8408ZM6.93232 52.0916L7.95232 63.3116L13.9277 62.7684L12.9077 51.5484L6.93232 52.0916ZM7.94 63.04V73H13.94V63.04H7.94ZM10.94 70H4.5V76H10.94V70ZM7.5 73V47.74H1.5V73H7.5ZM7.47502 47.3536L6.87502 42.7336L0.924984 43.5064L1.52498 48.1264L7.47502 47.3536ZM4.14983 46.1096L11.3298 45.5096L10.8302 39.5304L3.65018 40.1304L4.14983 46.1096ZM8.371 43.8089L15.251 58.2689L20.669 55.6911L13.789 41.2311L8.371 43.8089ZM15.0479 57.7008L16.5479 63.7608L22.3721 62.3192L20.8721 56.2592L15.0479 57.7008ZM22.3733 63.7562L23.8533 57.7362L18.0267 56.3038L16.5467 62.3238L22.3733 63.7562ZM66.2356 68.44L69.2148 68.7928L69.6119 65.44H66.2356V68.44ZM65.6956 73V76H68.3613L68.6748 73.3528L65.6956 73ZM46.5556 73L43.5637 72.7798L43.3267 76H46.5556V73ZM46.8956 68.38L49.8875 68.6002L49.8956 68.4902V68.38H46.8956ZM46.8956 47.74H49.8956V47.5197L49.8634 47.3017L46.8956 47.74ZM46.1956 43V40H42.7201L43.2278 43.4383L46.1956 43ZM65.4956 43H68.4956V40H65.4956V43ZM65.4956 47.56V50.56H68.4956V47.56H65.4956ZM53.6156 47.56V44.56H50.2719L50.6332 47.8842L53.6156 47.56ZM53.9156 50.32H56.9156V50.1574L56.8981 49.9958L53.9156 50.32ZM53.9156 54.68H50.9156V57.68H53.9156V54.68ZM64.1756 54.68H67.1756V51.68H64.1756V54.68ZM64.1756 58.94V61.94H67.1756V58.94H64.1756ZM53.9156 58.94V55.94H50.9156V58.94H53.9156ZM53.9156 65.8L56.9101 65.9815L56.9156 65.8908V65.8H53.9156ZM53.7556 68.44L50.7611 68.2585L50.5683 71.44H53.7556V68.44ZM63.2564 68.0872L62.7164 72.6472L68.6748 73.3528L69.2148 68.7928L63.2564 68.0872ZM65.6956 70H46.5556V76H65.6956V70ZM49.5475 73.2202L49.8875 68.6002L43.9037 68.1598L43.5637 72.7798L49.5475 73.2202ZM49.8956 68.38V47.74H43.8956V68.38H49.8956ZM49.8634 47.3017L49.1634 42.5617L43.2278 43.4383L43.9278 48.1783L49.8634 47.3017ZM46.1956 46H65.4956V40H46.1956V46ZM62.4956 43V47.56H68.4956V43H62.4956ZM65.4956 44.56H53.6156V50.56H65.4956V44.56ZM50.6332 47.8842L50.9332 50.6442L56.8981 49.9958L56.5981 47.2358L50.6332 47.8842ZM50.9156 50.32V54.68H56.9156V50.32H50.9156ZM53.9156 57.68H64.1756V51.68H53.9156V57.68ZM61.1756 54.68V58.94H67.1756V54.68H61.1756ZM64.1756 55.94H53.9156V61.94H64.1756V55.94ZM50.9156 58.94V65.8H56.9156V58.94H50.9156ZM50.9211 65.6185L50.7611 68.2585L56.7501 68.6215L56.9101 65.9815L50.9211 65.6185ZM53.7556 71.44H66.2356V65.44H53.7556V71.44Z" fill="black"/>
</svg>
