<svg width="79" height="52" viewBox="0 0 79 52" fill="none" xmlns="http://www.w3.org/2000/svg">
<path d="M6.58374 49.3069V6.45146" stroke="black" stroke-width="3" stroke-miterlimit="10" stroke-linecap="round" stroke-linejoin="round"/>
<path d="M39.3887 49.3069V6.45146" stroke="black" stroke-width="3" stroke-miterlimit="10" stroke-linecap="round" stroke-linejoin="round"/>
<path d="M72.1938 6.45146V49.3069" stroke="black" stroke-width="3" stroke-miterlimit="10" stroke-linecap="round" stroke-linejoin="round"/>
<path d="M6.58374 7.23799C6.58374 4.2901 13.9264 1.90057 22.9862 1.90057C32.046 1.90057 39.3887 4.2901 39.3887 7.23799" stroke="black" stroke-width="3" stroke-miterlimit="10" stroke-linecap="round" stroke-linejoin="round"/>
<path d="M39.3887 7.23799C39.3887 4.2901 46.7314 1.90057 55.7912 1.90057C64.851 1.90057 72.1937 4.2901 72.1937 7.23799" stroke="black" stroke-width="3" stroke-miterlimit="10" stroke-linecap="round" stroke-linejoin="round"/>
<path d="M39.3887 50.0994C39.3887 47.1515 46.7314 44.7619 55.7912 44.7619C64.851 44.7619 72.1937 47.1515 72.1937 50.0994" stroke="black" stroke-width="3" stroke-miterlimit="10" stroke-linecap="round" stroke-linejoin="round"/>
<path d="M6.58374 50.0994C6.58374 47.1515 13.9264 44.7619 22.9862 44.7619C32.046 44.7619 39.3887 47.1515 39.3887 50.0994" stroke="black" stroke-width="3" stroke-miterlimit="10" stroke-linecap="round" stroke-linejoin="round"/>
<path d="M76.8766 10.576V50.0993H1.90063V10.576" stroke="black" stroke-width="3" stroke-miterlimit="10" stroke-linecap="round" stroke-linejoin="round"/>
<path d="M46.3831 16.7241C46.3831 16.7241 49.1148 14.9589 55.707 14.9589C62.2992 14.9589 65.1931 16.7241 65.1931 16.7241" stroke="black" stroke-width="3" stroke-miterlimit="10" stroke-linecap="round" stroke-linejoin="round"/>
<path d="M46.3831 24.5171C46.3831 24.5171 49.1148 22.7519 55.707 22.7519C62.2992 22.7519 65.1931 24.5171 65.1931 24.5171" stroke="black" stroke-width="3" stroke-miterlimit="10" stroke-linecap="round" stroke-linejoin="round"/>
<path d="M46.3831 32.3101C46.3831 32.3101 49.1148 30.5449 55.707 30.5449C62.2992 30.5449 65.1931 32.3101 65.1931 32.3101" stroke="black" stroke-width="3" stroke-miterlimit="10" stroke-linecap="round" stroke-linejoin="round"/>
<path d="M13.5779 16.7241C13.5779 16.7241 16.3096 14.9589 22.9018 14.9589C29.4941 14.9589 32.3879 16.7241 32.3879 16.7241" stroke="black" stroke-width="3" stroke-miterlimit="10" stroke-linecap="round" stroke-linejoin="round"/>
<path d="M13.5779 24.5171C13.5779 24.5171 16.3096 22.7519 22.9018 22.7519C29.4941 22.7519 32.3879 24.5171 32.3879 24.5171" stroke="black" stroke-width="3" stroke-miterlimit="10" stroke-linecap="round" stroke-linejoin="round"/>
<path d="M13.5779 32.3101C13.5779 32.3101 16.3096 30.5449 22.9018 30.5449C29.4941 30.5449 32.3879 32.3101 32.3879 32.3101" stroke="black" stroke-width="3" stroke-miterlimit="10" stroke-linecap="round" stroke-linejoin="round"/>
</svg>
