<svg width="97" height="21" viewBox="0 0 97 21" fill="none" xmlns="http://www.w3.org/2000/svg">
<path d="M14.1616 10.1407C14.1616 5.69282 17.7658 2.08865 22.2137 2.08865C25.9554 2.08865 29.0918 4.63816 29.9998 8.09559" stroke="black" stroke-width="3" stroke-miterlimit="10" stroke-linecap="round"/>
<path d="M29.9981 12.1856C29.0901 15.643 25.9445 18.1925 22.212 18.1925C17.7641 18.1925 14.1599 14.5883 14.1599 10.1404" stroke="black" stroke-width="3" stroke-miterlimit="10" stroke-linecap="round"/>
<path d="M18.4155 9.66406C18.4155 7.5731 20.0571 5.86731 22.0747 5.86731" stroke="black" stroke-width="3" stroke-miterlimit="10" stroke-linecap="round" stroke-linejoin="round"/>
<path d="M5.18237 12.9838C8.4839 15.3866 14.0506 18.4038 21.4332 18.5597C29.0726 18.7248 34.9236 15.7534 38.4544 13.3048" stroke="black" stroke-width="3" stroke-miterlimit="10" stroke-linecap="round" stroke-linejoin="round"/>
<path d="M42.0218 10.2051C40.692 8.89364 33.1627 1.75868 21.4331 2.00629C10.4189 2.25391 3.45817 8.83861 2 10.2876" stroke="black" stroke-width="3" stroke-miterlimit="10" stroke-linecap="round" stroke-linejoin="round"/>
<path d="M67.1611 10.1407C67.1611 5.69282 70.7653 2.08865 75.2132 2.08865C78.9549 2.08865 82.0914 4.63816 82.9993 8.09559" stroke="black" stroke-width="3" stroke-miterlimit="10" stroke-linecap="round"/>
<path d="M82.9983 12.1856C82.0904 15.643 78.9448 18.1925 75.2122 18.1925C70.7643 18.1925 67.1602 14.5883 67.1602 10.1404" stroke="black" stroke-width="3" stroke-miterlimit="10" stroke-linecap="round"/>
<path d="M71.4158 9.66406C71.4158 7.5731 73.0574 5.86731 75.075 5.86731" stroke="black" stroke-width="3" stroke-miterlimit="10" stroke-linecap="round" stroke-linejoin="round"/>
<path d="M58.1821 12.9838C61.4837 15.3866 67.0504 18.4038 74.433 18.5597C82.0723 18.7248 87.9234 15.7534 91.4542 13.3048" stroke="black" stroke-width="3" stroke-miterlimit="10" stroke-linecap="round" stroke-linejoin="round"/>
<path d="M95.0218 10.2051C93.692 8.89364 86.1627 1.75868 74.4331 2.00629C63.4189 2.25391 56.4582 8.83861 55 10.2876" stroke="black" stroke-width="3" stroke-miterlimit="10" stroke-linecap="round" stroke-linejoin="round"/>
</svg>
