<svg width="79" height="52" viewBox="0 0 79 52" fill="none" xmlns="http://www.w3.org/2000/svg">
<path d="M6.58374 49.3066V6.45117" stroke="black" stroke-width="3" stroke-miterlimit="10" stroke-linecap="round" stroke-linejoin="round"/>
<path d="M39.3887 49.3066V6.45117" stroke="black" stroke-width="3" stroke-miterlimit="10" stroke-linecap="round" stroke-linejoin="round"/>
<path d="M72.1938 6.45117V49.3066" stroke="black" stroke-width="3" stroke-miterlimit="10" stroke-linecap="round" stroke-linejoin="round"/>
<path d="M6.58374 7.23781C6.58374 4.28992 13.9264 1.90039 22.9862 1.90039C32.046 1.90039 39.3887 4.28992 39.3887 7.23781" stroke="black" stroke-width="3" stroke-miterlimit="10" stroke-linecap="round" stroke-linejoin="round"/>
<path d="M39.3887 7.23781C39.3887 4.28992 46.7314 1.90039 55.7912 1.90039C64.851 1.90039 72.1937 4.28992 72.1937 7.23781" stroke="black" stroke-width="3" stroke-miterlimit="10" stroke-linecap="round" stroke-linejoin="round"/>
<path d="M39.3887 50.0991C39.3887 47.1512 46.7314 44.7617 55.7912 44.7617C64.851 44.7617 72.1937 47.1512 72.1937 50.0991" stroke="black" stroke-width="3" stroke-miterlimit="10" stroke-linecap="round" stroke-linejoin="round"/>
<path d="M6.58374 50.0991C6.58374 47.1512 13.9264 44.7617 22.9862 44.7617C32.046 44.7617 39.3887 47.1512 39.3887 50.0991" stroke="black" stroke-width="3" stroke-miterlimit="10" stroke-linecap="round" stroke-linejoin="round"/>
<path d="M76.8766 10.5762V50.0995H1.90063V10.5762" stroke="black" stroke-width="3" stroke-miterlimit="10" stroke-linecap="round" stroke-linejoin="round"/>
<path d="M46.3831 16.7241C46.3831 16.7241 49.1148 14.959 55.707 14.959C62.2992 14.959 65.1931 16.7241 65.1931 16.7241" stroke="black" stroke-width="3" stroke-miterlimit="10" stroke-linecap="round" stroke-linejoin="round"/>
<path d="M46.3831 24.5171C46.3831 24.5171 49.1148 22.752 55.707 22.752C62.2992 22.752 65.1931 24.5171 65.1931 24.5171" stroke="black" stroke-width="3" stroke-miterlimit="10" stroke-linecap="round" stroke-linejoin="round"/>
<path d="M46.3831 32.3101C46.3831 32.3101 49.1148 30.5449 55.707 30.5449C62.2992 30.5449 65.1931 32.3101 65.1931 32.3101" stroke="black" stroke-width="3" stroke-miterlimit="10" stroke-linecap="round" stroke-linejoin="round"/>
<path d="M13.5779 16.7241C13.5779 16.7241 16.3096 14.959 22.9018 14.959C29.4941 14.959 32.3879 16.7241 32.3879 16.7241" stroke="black" stroke-width="3" stroke-miterlimit="10" stroke-linecap="round" stroke-linejoin="round"/>
<path d="M13.5779 24.5171C13.5779 24.5171 16.3096 22.752 22.9018 22.752C29.4941 22.752 32.3879 24.5171 32.3879 24.5171" stroke="black" stroke-width="3" stroke-miterlimit="10" stroke-linecap="round" stroke-linejoin="round"/>
<path d="M13.5779 32.3101C13.5779 32.3101 16.3096 30.5449 22.9018 30.5449C29.4941 30.5449 32.3879 32.3101 32.3879 32.3101" stroke="black" stroke-width="3" stroke-miterlimit="10" stroke-linecap="round" stroke-linejoin="round"/>
</svg>
