<svg width="57" height="52" viewBox="0 0 57 52" fill="none" xmlns="http://www.w3.org/2000/svg">
<path d="M23.1677 1.58717L6.84424 42.6543" stroke="black" stroke-width="3" stroke-miterlimit="10" stroke-linecap="round" stroke-linejoin="round"/>
<path d="M35.714 33.142L23.168 1.58717" stroke="black" stroke-width="3" stroke-miterlimit="10" stroke-linecap="round" stroke-linejoin="round"/>
<path d="M38.0703 30.3471C38.0703 25.5714 41.9418 21.7 46.7175 21.7C51.4932 21.7 55.3646 25.5714 55.3646 30.3471V46.4514" stroke="black" stroke-width="3" stroke-miterlimit="10" stroke-linecap="round" stroke-linejoin="round"/>
<path d="M50.3503 33.5336C48.9019 33.7136 47.2148 33.8585 45.2536 33.9446C39.6128 34.1951 38.2858 35.3303 37.6086 37.7886C36.9666 40.1295 37.9883 42.7992 39.6637 44.3337C42.9675 47.3596 48.6866 46.745 52.01 45.0657C52.0805 45.0305 52.147 44.9952 52.2175 44.96" stroke="black" stroke-width="3" stroke-miterlimit="10" stroke-linecap="round" stroke-linejoin="round"/>
<path d="M1.58716 45.6685H34.379" stroke="black" stroke-width="3" stroke-miterlimit="10" stroke-linecap="round" stroke-linejoin="round"/>
<path d="M1.58716 50.4128H49.1836" stroke="black" stroke-width="3" stroke-miterlimit="10" stroke-linecap="round" stroke-linejoin="round"/>
<path d="M12.2935 28.9496H34.0464" stroke="black" stroke-width="3" stroke-miterlimit="10" stroke-linecap="round" stroke-linejoin="round"/>
</svg>
