<svg width="69" height="80" viewBox="0 0 69 80" fill="none" xmlns="http://www.w3.org/2000/svg">
<path d="M22.36 38H21.36V39H22.36V38ZM22.36 20.6H23.36V19.6H22.36V20.6ZM7.24 20.6V19.6H6.24V20.6H7.24ZM7.24 38V39H8.24V38H7.24ZM2.32 38H1.32V39H2.32V38ZM2.32 7.04H3.32V6.97128L3.3106 6.9032L2.32 7.04ZM1.624 2L1.53884 1.00363L0.489304 1.09333L0.633401 2.13679L1.624 2ZM7.24 1.52H8.24V0.430882L7.15484 0.52363L7.24 1.52ZM7.24 16.76H6.24V17.76H7.24V16.76ZM22.36 16.76V17.76H23.36V16.76H22.36ZM22.36 1.952L22.2725 0.95583L21.36 1.03596V1.952H22.36ZM27.28 1.52H28.28V0.428345L27.1925 0.52383L27.28 1.52ZM27.28 38V39H28.28V38H27.28ZM23.36 38V20.6H21.36V38H23.36ZM22.36 19.6H7.24V21.6H22.36V19.6ZM6.24 20.6V38H8.24V20.6H6.24ZM7.24 37H2.32V39H7.24V37ZM3.32 38V7.04H1.32V38H3.32ZM3.3106 6.9032L2.6146 1.8632L0.633401 2.13679L1.3294 7.1768L3.3106 6.9032ZM1.70916 2.99636L7.32516 2.51636L7.15484 0.52363L1.53884 1.00363L1.70916 2.99636ZM6.24 1.52V16.76H8.24V1.52H6.24ZM7.24 17.76H22.36V15.76H7.24V17.76ZM23.36 16.76V1.952H21.36V16.76H23.36ZM22.4475 2.94816L27.3675 2.51616L27.1925 0.52383L22.2725 0.95583L22.4475 2.94816ZM26.28 1.52V38H28.28V1.52H26.28ZM27.28 37H22.36V39H27.28V37ZM44.0174 37.016L43.5965 37.9231L44.0174 37.016ZM38.9054 33.176L38.1414 33.8213L38.1482 33.8292L38.9054 33.176ZM35.6894 27.344L34.7387 27.6542L34.7414 27.6623L35.6894 27.344ZM35.6654 12.68L36.6174 12.986L36.618 12.984L35.6654 12.68ZM38.8094 6.848L38.0454 6.20272L38.0449 6.2034L38.8094 6.848ZM43.9214 2.984L43.5032 2.07562V2.07562L43.9214 2.984ZM57.5774 2.984L57.1565 3.89111L57.1592 3.89238L57.5774 2.984ZM62.6894 6.848L61.9254 7.49331L61.9322 7.50123L62.6894 6.848ZM65.9054 12.68L64.9547 12.9902L64.9574 12.9983L65.9054 12.68ZM65.9534 27.344L66.9054 27.65L66.906 27.648L65.9534 27.344ZM62.7854 33.176L62.0214 32.5307L62.0209 32.5314L62.7854 33.176ZM57.6974 37.016L57.2792 36.1076L57.6974 37.016ZM61.7774 16.976L60.7872 17.1156L60.7874 17.1174L61.7774 16.976ZM60.9374 13.448L59.9914 13.7723L59.9929 13.7765L60.9374 13.448ZM59.4494 10.352L58.6045 10.8871L58.6087 10.8935L59.4494 10.352ZM57.2654 7.88L56.6281 8.65068L56.6353 8.65656L57.2654 7.88ZM54.3614 6.272L54.0163 7.21058L54.0246 7.21361L54.0329 7.2165L54.3614 6.272ZM45.6014 6.824L46.0767 7.70383L46.0802 7.70189L45.6014 6.824ZM42.1694 9.848L42.9852 10.4263L42.9852 10.4263L42.1694 9.848ZM40.2014 14.168L41.1698 14.4173L40.2014 14.168ZM39.8414 22.976L38.8511 23.1157L38.853 23.1281L39.8414 22.976ZM40.7054 26.552L39.758 26.8722L39.7594 26.8763L40.7054 26.552ZM42.1694 29.672L41.3182 30.1969L41.3234 30.2052L41.3287 30.2135L42.1694 29.672ZM44.3294 32.12L43.6921 32.8907L43.6993 32.8966L44.3294 32.12ZM47.2334 33.752L46.8883 34.6906L46.8966 34.6936L46.9049 34.6965L47.2334 33.752ZM54.4814 33.8L54.7976 34.7488L54.8105 34.7443L54.4814 33.8ZM57.2894 32.312L56.6894 31.512L56.6819 31.5176L57.2894 32.312ZM59.4254 30.08L58.6004 29.5148V29.5148L59.4254 30.08ZM60.8894 27.296L59.9599 26.9271L59.9568 26.935L60.8894 27.296ZM61.7534 24.128L60.7677 23.959L60.7658 23.9706L61.7534 24.128ZM50.8094 37.408C48.4055 37.408 46.2884 36.9673 44.4383 36.1089L43.5965 37.9231C45.7464 38.9207 48.1573 39.408 50.8094 39.408V37.408ZM44.4383 36.1089C42.5641 35.2393 40.9756 34.0447 39.6625 32.5228L38.1482 33.8292C39.6512 35.5713 41.4707 36.9367 43.5965 37.9231L44.4383 36.1089ZM39.6693 32.5307C38.3662 30.9879 37.3531 29.1575 36.6374 27.0257L34.7414 27.6623C35.5297 30.0105 36.6605 32.0681 38.1414 33.8213L39.6693 32.5307ZM36.6401 27.0338C35.9402 24.8886 35.5854 22.5464 35.5854 20H33.5854C33.5854 22.7336 33.9666 25.2874 34.7387 27.6542L36.6401 27.0338ZM35.5854 20C35.5854 17.4514 35.9328 15.1159 36.6174 12.986L34.7133 12.374C33.9579 14.7241 33.5854 17.2686 33.5854 20H35.5854ZM36.618 12.984C37.3026 10.8391 38.2911 9.01408 39.5739 7.49259L38.0449 6.2034C36.5757 7.94591 35.4682 10.0089 34.7127 12.376L36.618 12.984ZM39.5733 7.49328C40.868 5.96054 42.4527 4.7609 44.3395 3.89238L43.5032 2.07562C41.358 3.0631 39.5348 4.43946 38.0454 6.20272L39.5733 7.49328ZM44.3395 3.89238C46.2049 3.0337 48.3547 2.592 50.8094 2.592V0.591998C48.1121 0.591998 45.6698 1.0783 43.5032 2.07562L44.3395 3.89238ZM50.8094 2.592C53.1963 2.592 55.3056 3.03229 57.1565 3.89111L57.9983 2.07689C55.8492 1.07971 53.4465 0.591998 50.8094 0.591998V2.592ZM57.1592 3.89238C59.046 4.7609 60.6308 5.96054 61.9254 7.49328L63.4533 6.20272C61.964 4.43946 60.1407 3.0631 57.9955 2.07562L57.1592 3.89238ZM61.9322 7.50123C63.2452 9.02313 64.2556 10.8474 64.9547 12.9902L66.8561 12.3698C66.0831 10.0006 64.9495 7.93686 63.4465 6.19476L61.9322 7.50123ZM64.9574 12.9983C65.6712 15.1244 66.0334 17.4556 66.0334 20H68.0334C68.0334 17.2644 67.6436 14.7156 66.8534 12.3617L64.9574 12.9983ZM66.0334 20C66.0334 22.5485 65.686 24.8928 65.0007 27.04L66.906 27.648C67.6608 25.2832 68.0334 22.7315 68.0334 20H66.0334ZM65.0014 27.038C64.3176 29.165 63.3218 30.9912 62.0214 32.5307L63.5493 33.8213C65.0329 32.0648 66.1491 30.003 66.9054 27.65L65.0014 27.038ZM62.0209 32.5314C60.7433 34.0466 59.1672 35.2385 57.2792 36.1076L58.1155 37.9244C60.2595 36.9375 62.0754 35.5694 63.5499 33.8206L62.0209 32.5314ZM57.2792 36.1076C55.4138 36.9663 53.2641 37.408 50.8094 37.408V39.408C53.5067 39.408 55.9489 38.9217 58.1155 37.9244L57.2792 36.1076ZM63.0414 20.744C63.0414 19.418 62.9502 18.1147 62.7673 16.8346L60.7874 17.1174C60.9565 18.3013 61.0414 19.51 61.0414 20.744H63.0414ZM62.7676 16.8364C62.5832 15.529 62.2888 14.2894 61.8819 13.1195L59.9929 13.7765C60.354 14.8146 60.6195 15.927 60.7872 17.1156L62.7676 16.8364ZM61.8833 13.1237C61.4746 11.9315 60.9441 10.826 60.2901 9.81052L58.6087 10.8935C59.1706 11.766 59.6322 12.7245 59.9914 13.7723L61.8833 13.1237ZM60.2942 9.81695C59.6306 8.76909 58.831 7.86251 57.8954 7.10344L56.6353 8.65656C57.3957 9.27349 58.0522 10.0149 58.6046 10.8871L60.2942 9.81695ZM57.9026 7.10935C56.9716 6.33944 55.897 5.74737 54.6899 5.3275L54.0329 7.2165C55.0337 7.56463 55.8952 8.04456 56.6281 8.65064L57.9026 7.10935ZM54.7064 5.33342C53.4894 4.88598 52.1376 4.672 50.6654 4.672V6.672C51.9451 6.672 53.0573 6.85801 54.0163 7.21058L54.7064 5.33342ZM50.6654 4.672C48.5676 4.672 46.7072 5.08173 45.1225 5.9461L46.0802 7.70189C47.3115 7.03027 48.8271 6.672 50.6654 6.672V4.672ZM45.1261 5.94418C43.6019 6.76759 42.3403 7.87765 41.3536 9.26969L42.9852 10.4263C43.7904 9.29034 44.8169 8.3844 46.0767 7.70382L45.1261 5.94418ZM41.3536 9.26969C40.3818 10.6406 39.677 12.1938 39.2329 13.9187L41.1698 14.4173C41.5578 12.9102 42.165 11.5834 42.9852 10.4263L41.3536 9.26969ZM39.2329 13.9187C38.7954 15.6182 38.5774 17.3661 38.5774 19.16H40.5774C40.5774 17.5299 40.7753 15.9498 41.1698 14.4173L39.2329 13.9187ZM38.5774 19.16C38.5774 20.5014 38.6685 21.8201 38.8512 23.1156L40.8316 22.8364C40.6623 21.6359 40.5774 20.4106 40.5774 19.16H38.5774ZM38.853 23.1281C39.0533 24.4302 39.3546 25.6787 39.758 26.8722L41.6527 26.2318C41.2882 25.1533 41.0134 24.0178 40.8297 22.8239L38.853 23.1281ZM39.7594 26.8763C40.1663 28.063 40.6854 29.1707 41.3182 30.1969L43.0205 29.1471C42.4694 28.2533 42.0125 27.281 41.6513 26.2277L39.7594 26.8763ZM41.3287 30.2135C41.9901 31.2404 42.7778 32.1346 43.6921 32.8906L44.9666 31.3494C44.217 30.7294 43.5647 29.9916 43.0101 29.1305L41.3287 30.2135ZM43.6993 32.8966C44.6379 33.658 45.7034 34.255 46.8883 34.6906L47.5784 32.8134C46.5873 32.449 45.7169 31.958 44.9594 31.3434L43.6993 32.8966ZM46.9049 34.6965C48.1313 35.1231 49.4849 35.328 50.9534 35.328V33.328C49.6699 33.328 48.5434 33.1489 47.5619 32.8075L46.9049 34.6965ZM50.9534 35.328C52.3396 35.328 53.6245 35.1397 54.7976 34.7487L54.1651 32.8513C53.2263 33.1643 52.1592 33.328 50.9534 33.328V35.328ZM54.8105 34.7443C55.9578 34.3445 56.9894 33.8002 57.8968 33.1064L56.6819 31.5176C55.9573 32.0718 55.117 32.5195 54.1523 32.8557L54.8105 34.7443ZM57.8894 33.112C58.8093 32.4221 59.5971 31.5986 60.2503 30.6452L58.6004 29.5148C58.0697 30.2894 57.4335 30.9539 56.6894 31.512L57.8894 33.112ZM60.2503 30.6452C60.8866 29.7165 61.4105 28.7199 61.8219 27.657L59.9568 26.935C59.6002 27.8561 59.1481 28.7155 58.6004 29.5148L60.2503 30.6452ZM61.8189 27.6648C62.2467 26.5866 62.5537 25.4596 62.7409 24.2854L60.7658 23.9706C60.601 25.0044 60.332 25.9894 59.9599 26.9272L61.8189 27.6648ZM62.739 24.297C62.9406 23.1212 63.0414 21.9366 63.0414 20.744H61.0414C61.0414 21.8234 60.9502 22.8948 60.7678 23.959L62.739 24.297ZM31.6 79H30.6V80H31.6V79ZM31.6 55L30.6093 54.8638L30.6 54.9316V55H31.6ZM32.656 47.32L33.6467 47.4562L33.7749 46.524L32.8521 46.3394L32.656 47.32ZM32.536 47.296L32.7321 46.3154L31.8682 46.1426L31.5879 46.9779L32.536 47.296ZM30.112 54.52L31.0183 54.9426L31.0421 54.8915L31.0601 54.8381L30.112 54.52ZM20.152 75.88V76.88H20.7891L21.0583 76.3026L20.152 75.88ZM18.496 75.88L17.59 76.3032L17.8594 76.88H18.496V75.88ZM9.64 56.92L8.69014 57.2327L8.70876 57.2892L8.73396 57.3432L9.64 56.92ZM6.472 47.296L7.42186 46.9833L7.15367 46.1686L6.30759 46.3096L6.472 47.296ZM6.328 47.32L6.16359 46.3336L5.21526 46.4917L5.33591 47.4455L6.328 47.32ZM7.6 57.376H8.6V57.313L8.59209 57.2505L7.6 57.376ZM7.6 79V80H8.6V79H7.6ZM2.8 79H1.8V80H2.8V79ZM2.8 48.04H3.8V47.9736L3.79123 47.9078L2.8 48.04ZM2.128 43L2.04284 42.0036L0.998206 42.0929L1.13677 43.1322L2.128 43ZM7.744 42.52L8.65006 42.0968L8.35458 41.4642L7.65884 41.5236L7.744 42.52ZM18.28 65.08L19.2584 64.873L19.2346 64.7608L19.1861 64.6569L18.28 65.08ZM19.6 71.32L18.6217 71.527H20.5784L19.6 71.32ZM20.92 65.08L20.0137 64.6574L19.9653 64.7611L19.9417 64.873L20.92 65.08ZM31.216 43L31.1278 42.0039L30.5534 42.0547L30.3097 42.5774L31.216 43ZM36.64 42.52H37.64V41.4276L36.5519 41.5239L36.64 42.52ZM36.64 79V80H37.64V79H36.64ZM32.6 79V55H30.6V79H32.6ZM32.5907 55.1362L33.6467 47.4562L31.6653 47.1838L30.6093 54.8638L32.5907 55.1362ZM32.8521 46.3394L32.7321 46.3154L32.3399 48.2766L32.4599 48.3006L32.8521 46.3394ZM31.5879 46.9779L29.1639 54.2019L31.0601 54.8381L33.4841 47.6141L31.5879 46.9779ZM29.2057 54.0974L19.2457 75.4574L21.0583 76.3026L31.0183 54.9426L29.2057 54.0974ZM20.152 74.88H18.496V76.88H20.152V74.88ZM19.402 75.4568L10.546 56.4968L8.73396 57.3432L17.59 76.3032L19.402 75.4568ZM10.5899 56.6073L7.42186 46.9833L5.52214 47.6087L8.69014 57.2327L10.5899 56.6073ZM6.30759 46.3096L6.16359 46.3336L6.49241 48.3064L6.63641 48.2824L6.30759 46.3096ZM5.33591 47.4455L6.60791 57.5015L8.59209 57.2505L7.3201 47.1945L5.33591 47.4455ZM6.6 57.376V79H8.6V57.376H6.6ZM7.6 78H2.8V80H7.6V78ZM3.8 79V48.04H1.8V79H3.8ZM3.79123 47.9078L3.11923 42.8678L1.13677 43.1322L1.80877 48.1722L3.79123 47.9078ZM2.21316 43.9964L7.82916 43.5164L7.65884 41.5236L2.04284 42.0036L2.21316 43.9964ZM6.83794 42.9431L17.3739 65.5032L19.1861 64.6569L8.65006 42.0968L6.83794 42.9431ZM17.3017 65.287L18.6217 71.527L20.5784 71.113L19.2584 64.873L17.3017 65.287ZM20.5784 71.527L21.8984 65.287L19.9417 64.873L18.6217 71.113L20.5784 71.527ZM21.8263 65.5026L32.1223 43.4226L30.3097 42.5774L20.0137 64.6574L21.8263 65.5026ZM31.3042 43.9961L36.7282 43.5161L36.5519 41.5239L31.1278 42.0039L31.3042 43.9961ZM35.64 42.52V79H37.64V42.52H35.64ZM36.64 78H31.6V80H36.64V78ZM66.2988 75.16L67.291 75.284L67.4315 74.16H66.2988V75.16ZM65.8188 79V80H66.7015L66.811 79.124L65.8188 79ZM45.4188 79L44.4216 78.9252L44.3409 80H45.4188V79ZM45.7788 74.2L46.776 74.2748L46.7788 74.2374V74.2H45.7788ZM45.7788 48.04H46.7788V47.9689L46.7687 47.8986L45.7788 48.04ZM45.0588 43V42H43.9057L44.0688 43.1414L45.0588 43ZM65.4587 43H66.4587V42H65.4587V43ZM65.4587 46.84V47.84H66.4587V46.84H65.4587ZM50.3387 46.84V45.84H49.228L49.3442 46.9447L50.3387 46.84ZM50.8187 51.4H51.8187V51.3475L51.8133 51.2953L50.8187 51.4ZM50.8187 57.76H49.8187V58.76H50.8187V57.76ZM63.7787 57.76H64.7787V56.76H63.7787V57.76ZM63.7787 61.24V62.24H64.7787V61.24H63.7787ZM50.8187 61.24V60.24H49.8187V61.24H50.8187ZM50.8187 70.84L51.8172 70.8955L51.8187 70.8678V70.84H50.8187ZM50.5788 75.16L49.5803 75.1045L49.5217 76.16H50.5788V75.16ZM65.3065 75.036L64.8265 78.876L66.811 79.124L67.291 75.284L65.3065 75.036ZM65.8188 78H45.4188V80H65.8188V78ZM46.416 79.0748L46.776 74.2748L44.7816 74.1252L44.4216 78.9252L46.416 79.0748ZM46.7788 74.2V48.04H44.7788V74.2H46.7788ZM46.7687 47.8986L46.0487 42.8586L44.0688 43.1414L44.7888 48.1814L46.7687 47.8986ZM45.0588 44H65.4587V42H45.0588V44ZM64.4587 43V46.84H66.4587V43H64.4587ZM65.4587 45.84H50.3387V47.84H65.4587V45.84ZM49.3442 46.9447L49.8242 51.5047L51.8133 51.2953L51.3333 46.7353L49.3442 46.9447ZM49.8187 51.4V57.76H51.8187V51.4H49.8187ZM50.8187 58.76H63.7787V56.76H50.8187V58.76ZM62.7787 57.76V61.24H64.7787V57.76H62.7787ZM63.7787 60.24H50.8187V62.24H63.7787V60.24ZM49.8187 61.24V70.84H51.8187V61.24H49.8187ZM49.8203 70.7845L49.5803 75.1045L51.5772 75.2155L51.8172 70.8955L49.8203 70.7845ZM50.5788 76.16H66.2988V74.16H50.5788V76.16Z" fill="black"/>
</svg>
