<svg width="52" height="52" viewBox="0 0 52 52" fill="none" xmlns="http://www.w3.org/2000/svg">
<path d="M36.0049 15.105L22.441 22.7329L15.9949 36.8953L29.5625 29.2712L36.0049 15.105Z" stroke="black" stroke-width="3" stroke-miterlimit="10" stroke-linecap="round" stroke-linejoin="round"/>
<path d="M26.0018 29.9465C28.1803 29.9465 29.9463 28.1805 29.9463 26.0021C29.9463 23.8236 28.1803 22.0576 26.0018 22.0576C23.8234 22.0576 22.0574 23.8236 22.0574 26.0021C22.0574 28.1805 23.8234 29.9465 26.0018 29.9465Z" stroke="black" stroke-width="3" stroke-miterlimit="10" stroke-linecap="round" stroke-linejoin="round"/>
<path d="M10.6615 6.98945C14.8553 3.60521 20.1926 1.57544 26.0018 1.57544C39.4927 1.57544 50.4282 12.5109 50.4282 26.0018C50.4282 39.4927 39.4927 50.4282 26.0018 50.4282C12.5109 50.4282 1.57544 39.4889 1.57544 26.0018C1.57544 21.4473 2.82247 17.1805 4.99421 13.5315" stroke="black" stroke-width="3" stroke-miterlimit="10" stroke-linecap="round" stroke-linejoin="round"/>
<path d="M45.6858 26.0019C45.6858 36.8722 36.8722 45.6858 26.0019 45.6858C15.1317 45.6858 6.31812 36.8722 6.31812 26.0019C6.31812 15.1317 15.1317 6.31812 26.0019 6.31812C28.9718 6.31812 31.7881 6.97424 34.3129 8.1522" stroke="black" stroke-width="3" stroke-miterlimit="10" stroke-linecap="round" stroke-linejoin="round"/>
<path d="M42.5818 26.002H45.6859" stroke="black" stroke-width="3" stroke-miterlimit="10" stroke-linecap="round" stroke-linejoin="round"/>
<path d="M6.31812 26.002H9.42225" stroke="black" stroke-width="3" stroke-miterlimit="10" stroke-linecap="round" stroke-linejoin="round"/>
<path d="M26.002 9.42225V6.31812" stroke="black" stroke-width="3" stroke-miterlimit="10" stroke-linecap="round" stroke-linejoin="round"/>
<path d="M26.002 45.6859V42.5818" stroke="black" stroke-width="3" stroke-miterlimit="10" stroke-linecap="round" stroke-linejoin="round"/>
<path d="M37.7241 37.7241L39.9189 39.9189" stroke="black" stroke-width="3" stroke-miterlimit="10" stroke-linecap="round" stroke-linejoin="round"/>
<path d="M12.0813 12.0813L14.2761 14.2761" stroke="black" stroke-width="3" stroke-miterlimit="10" stroke-linecap="round" stroke-linejoin="round"/>
</svg>
