<svg width="162" height="34" viewBox="0 0 162 34" fill="none" xmlns="http://www.w3.org/2000/svg">
<path d="M23.0491 16.1389C23.0491 8.41367 29.2876 2.15381 36.9866 2.15381C43.4633 2.15381 48.8923 6.58191 50.4638 12.5869" stroke="black" stroke-width="3" stroke-miterlimit="10" stroke-linecap="round"/>
<path d="M50.4631 19.6902C48.8915 25.6952 43.4467 30.1233 36.9859 30.1233C29.2869 30.1233 23.0483 23.8635 23.0483 16.1382" stroke="black" stroke-width="3" stroke-miterlimit="10" stroke-linecap="round"/>
<path d="M30.4143 15.3107C30.4143 11.679 33.2558 8.71631 36.7481 8.71631" stroke="black" stroke-width="3" stroke-miterlimit="10" stroke-linecap="round" stroke-linejoin="round"/>
<path d="M7.5083 21.0776C13.223 25.2509 22.8586 30.4913 35.6374 30.7621C48.8606 31.0488 58.9883 25.888 65.0999 21.6351" stroke="black" stroke-width="3" stroke-miterlimit="10" stroke-linecap="round" stroke-linejoin="round"/>
<path d="M71.275 16.2509C68.9732 13.9732 55.9405 1.58086 35.6374 2.01093C16.5725 2.441 4.524 13.8776 2 16.3943" stroke="black" stroke-width="3" stroke-miterlimit="10" stroke-linecap="round" stroke-linejoin="round"/>
<path d="M111.736 17.2654C111.736 9.54014 117.974 3.28027 125.673 3.28027C132.15 3.28027 137.579 7.70837 139.15 13.7134" stroke="black" stroke-width="3" stroke-miterlimit="10" stroke-linecap="round"/>
<path d="M139.149 20.8167C137.577 26.8217 132.132 31.2498 125.671 31.2498C117.972 31.2498 111.734 24.9899 111.734 17.2646" stroke="black" stroke-width="3" stroke-miterlimit="10" stroke-linecap="round"/>
<path d="M119.1 16.4371C119.1 12.8055 121.941 9.84277 125.434 9.84277" stroke="black" stroke-width="3" stroke-miterlimit="10" stroke-linecap="round" stroke-linejoin="round"/>
<path d="M96.1946 22.2041C101.909 26.3773 111.545 31.6178 124.324 31.8886C137.547 32.1753 147.675 27.0145 153.786 22.7616" stroke="black" stroke-width="3" stroke-miterlimit="10" stroke-linecap="round" stroke-linejoin="round"/>
<path d="M159.961 17.3774C157.659 15.0996 144.626 2.70733 124.323 3.13739C105.258 3.56746 93.2095 15.0041 90.6855 17.5207" stroke="black" stroke-width="3" stroke-miterlimit="10" stroke-linecap="round" stroke-linejoin="round"/>
</svg>
