<svg width="60" height="26" viewBox="0 0 60 26" fill="none" xmlns="http://www.w3.org/2000/svg">
<path d="M18.988 12.8025C18.988 6.81486 24.0438 1.96301 30.2831 1.96301C35.5318 1.96301 39.9314 5.39511 41.205 10.0494" stroke="black" stroke-width="3" stroke-miterlimit="10" stroke-linecap="round"/>
<path d="M41.205 15.5556C39.9314 20.2099 35.5189 23.642 30.2831 23.642C24.0438 23.642 18.988 18.7901 18.988 12.8025" stroke="black" stroke-width="3" stroke-miterlimit="10" stroke-linecap="round"/>
<path d="M24.9572 12.1605C24.9572 9.34574 27.2599 7.04944 30.0901 7.04944" stroke="black" stroke-width="3" stroke-miterlimit="10" stroke-linecap="round" stroke-linejoin="round"/>
<path d="M6.39368 16.6296C11.0249 19.8642 18.8336 23.9259 29.1896 24.1358C39.9057 24.358 48.1132 20.358 53.0661 17.0617" stroke="black" stroke-width="3" stroke-miterlimit="10" stroke-linecap="round" stroke-linejoin="round"/>
<path d="M58.0703 12.8889C56.205 11.1235 45.6432 1.51852 29.1896 1.85185C13.7393 2.18519 3.97514 11.0494 1.92969 13" stroke="black" stroke-width="3" stroke-miterlimit="10" stroke-linecap="round" stroke-linejoin="round"/>
</svg>
